<svg preserveAspectRatio="none" overflow="visible" style="display: block;" width="32" height="27.4522" viewBox="0 0 32 27.4522" fill="none" xmlns="http://www.w3.org/2000/svg">
<path id="Vector" d="M12.8392 0.00919934C12.7583 0.0216287 12.6798 0.0463982 12.6064 0.0826431L0.44807 6.12898C0.432608 6.13888 0.417491 6.14931 0.402746 6.16025C0.374035 6.17675 0.346376 6.19501 0.319929 6.21494C0.287759 6.23919 0.257467 6.26584 0.229311 6.29465C0.211082 6.3146 0.193876 6.33545 0.177758 6.35714C0.148473 6.39284 0.122332 6.431 0.0996282 6.4712C0.0954083 6.47739 0.0912756 6.48364 0.0872314 6.48994C0.0827661 6.50286 0.0786325 6.51588 0.0748345 6.52901C0.0529161 6.57618 0.0356502 6.62537 0.0232819 6.67589C0.0214988 6.68784 0.0199866 6.69983 0.0187464 6.71185C0.00879006 6.75552 0.00251921 6.79995 0 6.84467V20.6091C0.000858001 20.758 0.0432865 20.9038 0.122507 21.0299C0.201728 21.1561 0.314595 21.2576 0.448396 21.3231L12.6067 27.3694C12.6093 27.37 12.6119 27.3705 12.6146 27.371C12.6832 27.4047 12.7563 27.4284 12.8317 27.4413C12.8401 27.4419 12.8484 27.4425 12.8568 27.4429C12.8915 27.4483 12.9264 27.4514 12.9615 27.4522C12.9924 27.4509 13.0232 27.4478 13.0537 27.4429C13.0683 27.4416 13.0829 27.44 13.0974 27.438C13.166 27.4259 13.2327 27.4049 13.2958 27.3755C13.3021 27.3735 13.3084 27.3714 13.3146 27.3692L18.4579 24.8131C18.5523 24.7664 18.6366 24.7016 18.7059 24.6222C18.7752 24.5428 18.8281 24.4506 18.8617 24.3507C18.8952 24.2508 18.9087 24.1453 18.9013 24.0402C18.894 23.9351 18.8659 23.8325 18.8188 23.7382C18.7721 23.6438 18.7072 23.5595 18.6278 23.4902C18.5485 23.4209 18.4562 23.368 18.3563 23.3344C18.2564 23.3009 18.1509 23.2874 18.0458 23.2948C17.9407 23.3022 17.8381 23.3302 17.7439 23.3773L13.7583 25.3615V13.3846L19.4 10.5786C19.4164 10.5713 19.4325 10.5635 19.4484 10.5551L24.3168 8.1334V11.5675C24.317 11.6727 24.3379 11.7768 24.3784 11.8738C24.4189 11.9709 24.4781 12.059 24.5527 12.1332C24.6273 12.2074 24.7158 12.2661 24.8131 12.306C24.9104 12.3459 25.0146 12.3663 25.1198 12.3658C25.3311 12.365 25.5336 12.2806 25.6829 12.131C25.8322 11.9814 25.9162 11.7788 25.9166 11.5675V6.84445C25.9161 6.84082 25.9156 6.83719 25.915 6.83357C25.9139 6.71437 25.8862 6.59693 25.8338 6.48985C25.8263 6.47765 25.8184 6.46566 25.8102 6.45389C25.7931 6.42622 25.7743 6.39961 25.754 6.37422C25.7334 6.34515 25.711 6.31749 25.6868 6.29141C25.6604 6.26499 25.6322 6.24044 25.6024 6.21796C25.5761 6.19697 25.5484 6.17766 25.5196 6.16015C25.5044 6.14918 25.4887 6.13875 25.4727 6.12889L13.3144 0.0825463C13.1674 0.0099647 13.0013 -0.015577 12.8392 0.00919934ZM12.961 1.68874L23.3226 6.8461L19.0371 8.97559L8.67549 3.82136L12.961 1.68874ZM6.88189 4.71347L17.2435 9.86614L12.961 11.9941L2.59633 6.84453L6.88189 4.71347ZM1.59955 8.13192L12.158 13.3815V25.3601L1.59955 20.1121V8.13192ZM4.98206 12.0831C4.83669 12.0865 4.69501 12.1295 4.57223 12.2074C4.44946 12.2853 4.35024 12.3952 4.28525 12.5253C4.23812 12.6195 4.21007 12.7221 4.2027 12.8272C4.19534 12.9323 4.20882 13.0378 4.24235 13.1377C4.27589 13.2376 4.32882 13.3299 4.39812 13.4092C4.46742 13.4886 4.55171 13.5535 4.64615 13.6002L8.03492 15.2829C8.22475 15.3766 8.44399 15.3912 8.64459 15.3235C8.8452 15.2559 9.0108 15.1115 9.10512 14.9219C9.19834 14.7323 9.2127 14.5134 9.14508 14.3132C9.07746 14.113 8.93335 13.9476 8.74422 13.8533L5.35546 12.1644C5.23938 12.1075 5.11126 12.0797 4.98206 12.0831ZM25.0006 13.358C21.4774 13.358 18.6059 16.2241 18.6059 19.7465C18.6059 23.269 21.4774 26.1413 25.0006 26.1413C27.876 26.1413 30.4028 24.2196 31.1657 21.4479C31.1942 21.3467 31.2025 21.2408 31.1901 21.1363C31.1776 21.0319 31.1447 20.9309 31.0932 20.8392C31.0417 20.7475 30.9726 20.6668 30.8898 20.6018C30.8071 20.5369 30.7124 20.4888 30.6111 20.4605C30.5094 20.4321 30.4031 20.4241 30.2983 20.4369C30.1935 20.4498 30.0923 20.4832 30.0006 20.5354C29.9088 20.5875 29.8282 20.6573 29.7635 20.7407C29.6988 20.8241 29.6513 20.9195 29.6236 21.0214C29.0499 23.1059 27.1636 24.5477 25.0006 24.5477C22.3417 24.5477 20.2057 22.404 20.2057 19.7465C20.2057 17.089 22.3417 14.9516 25.0006 14.9516C26.5622 14.9516 27.9793 15.7029 28.8628 16.9046L28.0894 16.5577C27.8967 16.4703 27.6771 16.4628 27.4789 16.5369C27.2806 16.611 27.1198 16.7606 27.0317 16.953C26.9876 17.0492 26.963 17.1531 26.9594 17.2588C26.9557 17.3645 26.9731 17.4698 27.0104 17.5688C27.0478 17.6677 27.1044 17.7583 27.1769 17.8352C27.2495 17.9122 27.3366 17.9739 27.4332 18.017L29.9783 19.1622C30.0777 19.2073 30.1854 19.2316 30.2946 19.2335C30.4038 19.2354 30.5122 19.215 30.6132 19.1734C30.7142 19.1319 30.8056 19.07 30.8818 18.9918C30.9581 18.9136 31.0174 18.8205 31.0563 18.7185C31.1341 18.6043 31.1809 18.4719 31.1923 18.3341C31.1923 18.3347 31.1923 18.3336 31.1923 18.3341L31.9563 16.1453C32.0255 15.9447 32.0121 15.7249 31.9193 15.5342C31.8264 15.3434 31.6615 15.1974 31.461 15.1282C31.2612 15.0592 31.0423 15.0721 30.8521 15.1641C30.6618 15.256 30.5156 15.4194 30.4454 15.6188L30.2689 16.125C29.1 14.4283 27.1476 13.358 25.0006 13.358Z" fill="#C3C3C3"/>
</svg>
